<svg width="120" height="24" viewBox="0 0 120 24" fill="none" xmlns="http://www.w3.org/2000/svg">
<path d="M21 6.73077C20.325 7.07692 19.65 7.19231 18.8625 7.30769C19.65 6.84615 20.2125 6.15385 20.4375 5.23077C19.7625 5.69231 18.975 5.92308 18.075 6.15385C17.4 5.46154 16.3875 5 15.375 5C13.0125 5 11.2125 7.30769 11.775 9.61538C8.7375 9.5 6.0375 8 4.125 5.69231C3.1125 7.42308 3.675 9.61538 5.25 10.7692C4.6875 10.7692 4.125 10.5385 3.5625 10.3077C3.5625 12.0385 4.8 13.6538 6.4875 14.1154C5.925 14.2308 5.3625 14.3462 4.8 14.2308C5.25 15.7308 6.6 16.8846 8.2875 16.8846C6.9375 17.9231 4.9125 18.5 3 18.2692C4.6875 19.3077 6.6 20 8.625 20C15.4875 20 19.3125 14.1154 19.0875 8.69231C19.875 8.23077 20.55 7.53846 21 6.73077Z" fill="white"/>
<path d="M55.05 21H51.225V8.9625H55.05V21ZM53.1375 7.275C51.9 7.275 51 6.375 51 5.1375C51 3.9 52.0125 3 53.1375 3C54.375 3 55.275 3.9 55.275 5.1375C55.275 6.375 54.375 7.275 53.1375 7.275ZM69 21H65.175V14.475C65.175 12.5625 64.3875 12 63.2625 12C62.1375 12 61.0125 12.9 61.0125 14.5875V21H57.1875V8.9625H60.7875V10.65C61.125 9.8625 62.475 8.625 64.3875 8.625C66.525 8.625 68.775 9.8625 68.775 13.575V21H69Z" fill="white"/>
<path d="M110.88 12C110.88 12.5696 110.711 13.1264 110.395 13.6C110.078 14.0737 109.628 14.4428 109.102 14.6608C108.576 14.8788 107.997 14.9358 107.438 14.8247C106.879 14.7135 106.366 14.4392 105.964 14.0365C105.561 13.6337 105.286 13.1205 105.175 12.5619C105.064 12.0032 105.121 11.4241 105.339 10.8979C105.557 10.3716 105.926 9.92183 106.4 9.60537C106.874 9.28891 107.43 9.12 108 9.12C108.764 9.12087 109.496 9.42458 110.036 9.9645C110.575 10.5044 110.879 11.2364 110.88 12ZM117 8.04V15.96C116.998 17.2962 116.467 18.5773 115.522 19.5221C114.577 20.467 113.296 20.9985 111.96 21H104.04C102.704 20.9985 101.423 20.467 100.478 19.5221C99.533 18.5773 99.0015 17.2962 99 15.96V8.04C99.0015 6.70377 99.533 5.42271 100.478 4.47785C101.423 3.533 102.704 3.00151 104.04 3H111.96C113.296 3.00151 114.577 3.533 115.522 4.47785C116.467 5.42271 116.998 6.70377 117 8.04ZM112.32 12C112.32 11.1456 112.067 10.3104 111.592 9.59994C111.117 8.88952 110.443 8.33581 109.653 8.00884C108.864 7.68187 107.995 7.59632 107.157 7.76301C106.319 7.9297 105.549 8.34114 104.945 8.9453C104.341 9.54946 103.93 10.3192 103.763 11.1572C103.596 11.9952 103.682 12.8638 104.009 13.6532C104.336 14.4426 104.89 15.1173 105.6 15.5919C106.31 16.0666 107.146 16.32 108 16.32C109.145 16.3187 110.243 15.8631 111.053 15.0533C111.863 14.2434 112.319 13.1453 112.32 12ZM113.76 7.32C113.76 7.1064 113.697 6.89759 113.578 6.71998C113.459 6.54238 113.291 6.40395 113.093 6.32221C112.896 6.24047 112.679 6.21908 112.469 6.26075C112.26 6.30242 112.067 6.40528 111.916 6.55632C111.765 6.70737 111.662 6.8998 111.621 7.1093C111.579 7.3188 111.6 7.53595 111.682 7.7333C111.764 7.93064 111.902 8.09932 112.08 8.21799C112.258 8.33666 112.466 8.4 112.68 8.4C112.966 8.4 113.241 8.28621 113.444 8.08368C113.646 7.88114 113.76 7.60643 113.76 7.32Z" fill="white"/>
</svg>
